<svg width="24" height="24" viewBox="0 0 24 24" fill="none" xmlns="http://www.w3.org/2000/svg">
<path fill-rule="evenodd" clip-rule="evenodd" d="M10.7565 3C9.41016 3 8.31874 4.08107 8.31874 5.41463C8.31874 5.80985 8.4146 6.1829 8.58455 6.5122H5.88098C4.28986 6.5122 3 7.78982 3 9.36585C3 10.1657 3.33269 10.8886 3.86675 11.4061C3.85389 11.7203 3.86147 12.0238 3.87071 12.3939C3.87806 12.6883 3.88646 13.0249 3.88646 13.4425V13.466C3.88645 14.5176 3.88645 15.339 3.93004 16.0018C3.97429 16.675 4.06553 17.2311 4.27042 17.7444C4.78264 19.0276 5.76915 20.0566 7.02277 20.5955C7.52749 20.8124 8.07326 20.9083 8.72718 20.9546C9.36902 21 10.1631 21 11.1739 21H13.8849C14.8956 21 15.6898 21 16.3316 20.9546C16.9856 20.9083 17.5313 20.8124 18.0361 20.5955C19.2897 20.0566 20.2762 19.0276 20.7884 17.7444C20.9933 17.2311 21.0845 16.675 21.1288 16.0018C21.1724 15.339 21.1724 14.5177 21.1724 13.4661V13.4171C21.1724 12.4617 21.1724 11.978 21.1392 11.4561C21.7041 10.9357 22.0588 10.1918 22.0588 9.36585C22.0588 7.78982 20.769 6.5122 19.1778 6.5122H16.4743C16.6442 6.1829 16.7401 5.80985 16.7401 5.41463C16.7401 4.08107 15.6487 3 14.3023 3C13.6038 3 12.9739 3.29103 12.5294 3.75735C12.085 3.29103 11.455 3 10.7565 3ZM10.7565 4.31707C11.3685 4.31707 11.8646 4.80847 11.8646 5.41463V6.5122H10.7565C10.1445 6.5122 9.64843 6.0208 9.64843 5.41463C9.64843 4.80847 10.1445 4.31707 10.7565 4.31707ZM15.4104 5.41463C15.4104 6.0208 14.9143 6.5122 14.3023 6.5122H13.1943V5.41463C13.1943 4.80847 13.6904 4.31707 14.3023 4.31707C14.9143 4.31707 15.4104 4.80847 15.4104 5.41463ZM4.32969 9.36585C4.32969 8.51722 5.02423 7.82927 5.88098 7.82927H11.8646V10.9024H5.88098C5.54262 10.9024 5.23134 10.7959 4.97689 10.6147C4.58362 10.3347 4.32969 9.87965 4.32969 9.36585ZM20.7291 9.36585C20.7291 8.51722 20.0346 7.82927 19.1778 7.82927H13.1943V10.9024H19.1778C19.5102 10.9024 19.8163 10.7997 20.0681 10.6245C20.4692 10.3454 20.7291 9.88563 20.7291 9.36585ZM5.19489 12.1379C5.41494 12.1912 5.64477 12.2195 5.88098 12.2195H11.8646L11.8646 19.6829H11.1997C10.1576 19.6829 9.41089 19.6825 8.82198 19.6408C8.23967 19.5996 7.86188 19.5204 7.55208 19.3873C6.63362 18.9925 5.89444 18.2308 5.50696 17.2601C5.37446 16.9282 5.297 16.5259 5.25691 15.9162C5.21647 15.3012 5.21614 14.5226 5.21614 13.4425C5.21614 12.917 5.20615 12.5515 5.19817 12.2596L5.19489 12.1379ZM13.1943 12.2195L13.1943 19.6829H13.8591C14.9012 19.6829 15.6479 19.6825 16.2368 19.6408C16.8192 19.5996 17.1969 19.5204 17.5067 19.3873C18.4252 18.9925 19.1644 18.2308 19.5519 17.2601C19.6844 16.9282 19.7618 16.5259 19.8019 15.9162C19.8424 15.3012 19.8427 14.5226 19.8427 13.4425C19.8427 12.8625 19.8426 12.4682 19.8362 12.1445C19.6246 12.1936 19.4041 12.2195 19.1778 12.2195H13.1943Z" fill="black"/>
</svg>
